<?xml version="1.0" standalone="no"?>
<!DOCTYPE svg PUBLIC "-//W3C//DTD SVG 20010904//EN"
 "http://www.w3.org/TR/2001/REC-SVG-20010904/DTD/svg10.dtd">
<svg version="1.0" xmlns="http://www.w3.org/2000/svg"
 width="16.000000pt" height="16.000000pt" viewBox="0 0 16.000000 16.000000"
 preserveAspectRatio="xMidYMid meet">
<metadata>
Created by potrace 1.11, written by Peter Selinger 2001-2013
</metadata>
<g transform="translate(0.000000,16.000000) scale(0.001521,-0.001521)"
fill="#000000" stroke="none">
<path d="M6174 10013 c-18 -46 -62 -132 -229 -448 -23 -44 -77 -147 -120 -230
-43 -82 -86 -165 -97 -182 -11 -18 -16 -33 -11 -33 4 0 3 -4 -3 -8 -10 -6 -42
-65 -231 -432 -36 -69 -82 -156 -103 -195 -47 -88 -157 -298 -227 -434 -29
-57 -58 -110 -64 -118 -6 -7 -8 -13 -3 -13 5 0 4 -4 -1 -8 -6 -4 -30 -45 -54
-92 -43 -83 -101 -194 -196 -375 -26 -49 -77 -146 -112 -215 -36 -69 -84 -159
-106 -200 -22 -41 -58 -111 -80 -155 -22 -44 -44 -81 -49 -83 -4 -2 -8 -10 -8
-17 0 -13 -29 -74 -40 -85 -3 -3 -27 -50 -55 -105 -27 -55 -53 -102 -56 -105
-3 -3 -11 -20 -18 -37 -8 -18 -18 -33 -24 -33 -6 0 -8 -3 -4 -6 3 -4 -7 -30
-22 -58 -16 -28 -61 -114 -101 -191 -40 -77 -77 -146 -82 -152 -6 -7 -7 -13
-2 -13 5 0 4 -4 -1 -8 -6 -4 -23 -32 -39 -62 -75 -149 -101 -196 -111 -202 -5
-4 -6 -8 -2 -8 4 0 -3 -19 -17 -42 -24 -43 -99 -184 -172 -328 -22 -41 -41
-77 -44 -80 -3 -3 -28 -50 -56 -105 -101 -199 -207 -401 -226 -432 -11 -18
-16 -33 -11 -33 4 0 3 -4 -2 -8 -12 -8 -14 -12 -232 -432 -36 -69 -69 -129
-74 -135 -5 -5 -9 -17 -9 -26 0 -10 -4 -19 -8 -21 -5 -1 -45 -73 -88 -158 -43
-85 -81 -157 -84 -160 -3 -3 -24 -43 -48 -90 -23 -47 -81 -157 -127 -245 -46
-88 -104 -198 -127 -245 -24 -47 -45 -87 -48 -90 -3 -3 -21 -36 -40 -75 -19
-38 -41 -78 -49 -87 -8 -10 -11 -18 -6 -18 4 0 3 -6 -3 -12 -9 -13 -28 -48
-177 -333 -37 -71 -80 -152 -95 -180 -51 -93 -54 -100 -56 -114 -2 -8 -6 -17
-11 -20 -5 -3 -34 -55 -64 -116 -115 -226 -154 -300 -159 -305 -3 -3 -21 -36
-41 -75 -19 -38 -56 -109 -81 -157 -25 -49 -43 -89 -39 -89 3 -1 675 -2 1493
-3 817 0 1489 -3 1492 -6 3 -3 1 -24 -4 -46 -5 -23 -12 -56 -14 -75 -8 -52
-40 -242 -61 -354 -3 -16 -8 -46 -11 -65 -3 -19 -8 -48 -11 -65 -3 -16 -6 -37
-8 -45 -1 -8 -5 -31 -9 -50 -6 -36 -12 -70 -22 -130 -3 -19 -10 -40 -15 -46
-6 -7 -1 -30 15 -63 26 -56 32 -55 42 5 3 22 8 53 11 69 3 17 7 44 8 60 2 17
10 66 19 110 9 44 18 94 20 110 2 17 9 62 16 100 7 39 13 77 15 85 1 8 4 29 8
45 8 41 19 105 22 135 1 14 3 25 4 25 2 0 4 16 7 35 5 42 12 75 14 75 2 0 5
32 9 78 1 24 56 78 275 268 21 19 51 46 67 60 15 14 58 52 94 85 37 32 77 68
89 79 13 11 56 49 96 85 40 36 88 79 106 95 27 25 106 97 198 180 82 73 206
187 247 225 26 25 64 60 86 79 21 18 74 67 118 108 44 42 133 126 198 187 307
288 701 678 917 907 63 67 139 147 168 177 28 30 52 56 52 58 0 2 8 12 18 22
17 18 133 147 169 188 10 12 35 41 55 65 21 24 49 58 64 74 14 17 39 48 57 69
18 22 56 68 85 102 28 35 52 65 52 68 0 2 13 19 30 38 16 18 30 38 32 43 1 6
10 19 21 30 10 11 55 70 98 130 43 61 82 115 86 120 50 66 63 85 58 85 -3 0 3
9 13 20 10 11 25 33 33 48 8 15 22 36 31 46 10 11 21 29 24 40 4 12 10 23 13
26 9 6 93 153 139 240 18 36 38 69 43 75 5 5 9 16 9 25 0 9 5 21 11 27 11 11
41 77 80 178 11 28 27 65 35 83 8 18 17 40 19 50 2 9 10 35 19 57 12 33 48
164 61 225 2 8 4 15 5 15 2 0 6 25 14 85 2 14 4 25 6 25 3 0 7 41 15 145 4 41
8 84 9 95 1 11 -2 28 -6 38 -5 10 -5 17 0 17 6 0 8 15 6 33 -1 17 -3 32 -4 32
-1 0 -3 29 -5 65 -6 99 -25 232 -39 270 -3 8 -7 26 -10 40 -2 14 -10 45 -17
70 -7 25 -13 47 -13 50 -1 3 -5 11 -9 18 -5 6 -6 12 -3 12 3 0 -3 20 -14 45
-11 25 -19 47 -20 50 0 3 -7 22 -16 43 -8 20 -23 55 -32 77 -23 59 -130 264
-163 313 -16 24 -29 45 -29 48 0 4 -66 103 -155 229 -33 47 -61 82 -110 140
-11 13 -27 33 -35 45 -8 12 -26 34 -40 49 -14 15 -52 58 -85 96 -47 54 -206
222 -311 329 -6 6 -58 54 -114 106 -56 52 -124 115 -150 140 -27 25 -72 65
-101 90 -29 25 -57 50 -63 55 -6 6 -47 42 -91 80 -44 38 -85 74 -92 80 -6 5
-24 20 -40 32 -15 12 -41 34 -58 49 -16 14 -56 47 -87 72 -32 25 -58 49 -58
53 0 5 -5 9 -11 9 -9 0 -84 58 -127 98 -8 7 -30 25 -50 40 -21 15 -39 29 -42
32 -3 3 -25 21 -50 40 -25 19 -47 37 -50 40 -3 3 -21 17 -40 31 -19 15 -45 35
-57 45 -11 11 -31 26 -43 34 -12 8 -34 25 -48 38 -15 12 -52 42 -82 65 -30 23
-64 50 -75 60 -44 41 -54 41 -71 0z"/>
</g>
</svg>
